<?xml version="1.0" encoding="UTF-8" standalone="no"?>
<!-- Created with Inkscape (http://www.inkscape.org/) -->

<svg
   xmlns:dc="http://purl.org/dc/elements/1.1/"
   xmlns:cc="http://creativecommons.org/ns#"
   xmlns:rdf="http://www.w3.org/1999/02/22-rdf-syntax-ns#"
   xmlns:svg="http://www.w3.org/2000/svg"
   xmlns="http://www.w3.org/2000/svg"
   xmlns:sodipodi="http://sodipodi.sourceforge.net/DTD/sodipodi-0.dtd"
   xmlns:inkscape="http://www.inkscape.org/namespaces/inkscape"
   width="3200"
   height="4800"
   id="svg3882"
   version="1.1"
   inkscape:version="0.48.4 r"
   sodipodi:docname="cover.svg"
   inkscape:export-filename="D:\fink-visual-novels\development\avilu\public\src\epub\cover.png"
   inkscape:export-xdpi="45"
   inkscape:export-ydpi="45">
  <defs
     id="defs3884" />
  <sodipodi:namedview
     id="base"
     pagecolor="#f0f0f0"
     bordercolor="#666666"
     borderopacity="1.0"
     inkscape:pageopacity="1"
     inkscape:pageshadow="2"
     inkscape:zoom="0.12374369"
     inkscape:cx="-280.55252"
     inkscape:cy="2965.3907"
     inkscape:document-units="px"
     inkscape:current-layer="g3993"
     showgrid="false"
     inkscape:window-width="1920"
     inkscape:window-height="1137"
     inkscape:window-x="-8"
     inkscape:window-y="-8"
     inkscape:window-maximized="1"
     borderlayer="true"
     inkscape:showpageshadow="true"
     showborder="true" />
  <metadata
     id="metadata3887">
    <rdf:RDF>
      <cc:Work
         rdf:about="">
        <dc:format>image/svg+xml</dc:format>
        <dc:type
           rdf:resource="http://purl.org/dc/dcmitype/StillImage" />
        <dc:title></dc:title>
      </cc:Work>
    </rdf:RDF>
  </metadata>
  <g
     inkscape:label="Ebene 1"
     inkscape:groupmode="layer"
     id="layer1"
     transform="translate(0,3747.6378)">
    <g
       id="g3993"
       transform="matrix(1.0732142,0,0,1.0732142,-368.26692,260.18939)">
      <g
         id="g2987"
         transform="matrix(6.0698354,0,0,6.0698354,-1025.4548,-3762.6181)">
        <rect
           y="589.71234"
           x="400.02045"
           height="193.9493"
           width="242.43661"
           id="rect3951"
           style="fill:#ffffff;fill-opacity:1;stroke:none" />
        <path
           style="fill:#d06060;fill-opacity:1;stroke:none"
           d="m 502.01822,442.87882 c -31.1669,1.01743 -49.5029,32.93742 -18.4688,73.59375 -19.7085,5.522 -58.9262,12.21708 -73.8437,0.6875 0.9712,5.4929 10.8178,14.26938 23.25,23.15625 -32.0443,13.96955 -56.4079,39.37841 -58.9375,72.46875 -0.4775,6.2462 -0.9696,14.52965 -1.4062,24.0625 -4.6381,19.21661 -11.0092,38.61601 -22.3081,47.94643 5.0385,-0.62081 10.8604,-2.4537 18.6831,-9.66518 -3.4311,19.91601 -11.6414,57.10114 -25.9912,68.95089 7.0824,-0.87264 20.3279,-6.78186 31.0091,-17.8125 -2.9458,32.50802 1.5603,55.18208 7.4821,78.45536 l 51.2187,-10.125 c -9.012,-59.5903 -19.33,-126.26587 17.5625,-164.65625 2.2927,9.97619 -3.794,24.34714 -4.75,30.15625 13.5506,-7.10578 40.5968,-45.11579 42.4265,-51.5211 -10.5321,101.38432 12.5687,143.37545 33.9485,232.30235 -18.2573,-89.16047 -35.676,-138.17798 -12.1562,-227.84375 25.5993,10.78421 57.7243,44.94009 57.4062,47.78125 3.5757,-8.83325 -4.4027,-35.32554 -11.1429,-51.78571 17.5203,20.11864 24.8664,58.3095 23.0179,68.16071 7.9059,-9.74169 13.267,-31.89276 14.7188,-47.15625 5.2455,7.59893 2.497,29.82529 0.1562,34.21875 5.5061,-1.98936 16.8503,-19.06903 18.5625,-30.09375 7.097,63.64362 -1.0186,120.2494 -7.75,182.15625 l 86.0625,1.65625 c -1.8346,-31.32002 -1.9273,-61.3715 -2.0938,-89.375 8.9991,3.36025 18.2101,6.38035 24,7.09375 -11.858,-9.79212 -20.2502,-34.9614 -24.75,-54.65625 0,-0.02 0,-0.0425 0,-0.0625 -0.129,-3.7591 -0.2836,-7.46155 -0.4687,-11.09375 4.9188,-0.27809 10.4497,-2.35515 16.625,-6.9375 -15.3555,-15.19743 -18.9217,-29.7573 -22,-40.09375 -3.0739,-14.92406 -8.7624,-29.25431 -15.5313,-41.59375 7.8531,-8.68231 16.5082,-18.9681 19.9063,-25.46875 -7.7914,4.47616 -20.0929,6.01375 -32.9687,5.96875 -22.116,-27.4169 -56.6035,-46.56299 -110.4688,-47.78125 -54.3534,-31.48908 -68.1723,-72.65443 -6.7188,-60.875 -11.958,-7.4362 -23.8328,-10.55983 -34.2812,-10.21875 z"
           id="path3127"
           inkscape:connector-curvature="0"
           sodipodi:nodetypes="scccsccccccccccccccccccccccccccccccccs" />
        <path
           sodipodi:type="arc"
           style="fill:#000000;fill-opacity:1;stroke:none"
           id="path3131"
           sodipodi:cx="1177.3328"
           sodipodi:cy="10.389832"
           sodipodi:rx="3.5355339"
           sodipodi:ry="3.5355339"
           d="m 1180.8683,10.389832 c 0,1.952621 -1.5829,3.535533 -3.5355,3.535533 -1.9527,0 -3.5356,-1.582912 -3.5356,-3.535533 0,-1.9526219 1.5829,-3.5355344 3.5356,-3.5355344 1.9526,0 3.5355,1.5829125 3.5355,3.5355344 z"
           transform="translate(-705.59155,676.80221)" />
        <path
           transform="translate(-605.58642,673.77175)"
           sodipodi:type="arc"
           style="fill:#000000;fill-opacity:1;stroke:none"
           id="path3131-8"
           sodipodi:cx="1177.3328"
           sodipodi:cy="10.389832"
           sodipodi:rx="3.5355339"
           sodipodi:ry="3.5355339"
           d="m 1180.8683,10.389832 c 0,1.952621 -1.5829,3.535533 -3.5355,3.535533 -1.9527,0 -3.5356,-1.582912 -3.5356,-3.535533 0,-1.9526219 1.5829,-3.5355344 3.5356,-3.5355344 1.9526,0 3.5355,1.5829125 3.5355,3.5355344 z" />
      </g>
      <rect
         style="fill:#f0f0f0;fill-opacity:1;stroke:none"
         id="rect2993"
         width="3684.5261"
         height="979.70062"
         x="-6.4433656"
         y="778.89984" />
      <text
         xml:space="preserve"
         style="font-size:931.78045654px;font-style:normal;font-variant:normal;font-weight:normal;font-stretch:normal;text-align:center;line-height:120.00000477%;letter-spacing:0px;word-spacing:0px;text-anchor:middle;fill:#d06060;fill-opacity:1;stroke:none;font-family:Ornitons-Xlight;-inkscape-font-specification:Ornitons-Xlight"
         x="1855.6406"
         y="-2387.6802"
         id="text2995"
         sodipodi:linespacing="120%"><tspan
           sodipodi:role="line"
           id="tspan2997"
           x="1855.6406"
           y="-2387.6802"
           style="font-size:1024.95848452px;line-height:100%;fill:#d06060;fill-opacity:1">AVILU</tspan><tspan
           sodipodi:role="line"
           x="1869.1078"
           y="-2091.2188"
           id="tspan2999"
           style="font-size:93.17804718px;line-height:100%;fill:#d06060;fill-opacity:1" /><tspan
           sodipodi:role="line"
           x="1855.6406"
           y="-1880.0181"
           style="font-size:218.96840351px;line-height:120.00000476999999000%;fill:#000000;fill-opacity:1"
           id="tspan3771">ein Open Source Roman</tspan><tspan
           sodipodi:role="line"
           x="1855.6406"
           y="-1639.6188"
           id="tspan3001"
           style="font-size:218.96840351px;line-height:120.00000476999999000%;fill:#000000;fill-opacity:1">von Joschua Fink</tspan></text>
      <flowRoot
         xml:space="preserve"
         id="flowRoot3792"
         style="fill:black;stroke:none;stroke-opacity:1;stroke-width:1px;stroke-linejoin:miter;stroke-linecap:butt;fill-opacity:1;font-family:Sans;font-style:normal;font-weight:normal;font-size:40px;line-height:125%;letter-spacing:0px;word-spacing:0px"><flowRegion
           id="flowRegion3794"><rect
             id="rect3796"
             width="299.00516"
             height="72.73098"
             x="2270.823"
             y="2149.3599" /></flowRegion><flowPara
           id="flowPara3798" /></flowRoot>    </g>
  </g>
</svg>
